<svg width="24" height="24" viewBox="0 0 24 24" fill="#778687" xmlns="http://www.w3.org/2000/svg" class="statistics_icon__LiFbO"><path fill-rule="evenodd" d="M16.158 8.233a4.207 4.207 0 0 1-4.21 4.233A4.207 4.207 0 0 1 7.74 8.233 4.206 4.206 0 0 1 11.95 4a4.206 4.206 0 0 1 4.209 4.233ZM11.948 20c-3.43 0-6.36-.544-6.36-2.72 0-2.177 2.91-2.74 6.36-2.74 3.432 0 6.361.543 6.361 2.72 0 2.176-2.91 2.74-6.36 2.74Zm6.009-11.691a5.765 5.765 0 0 1-.984 3.241.158.158 0 0 0 .106.244c.157.027.319.043.484.047 1.643.043 3.117-1.02 3.525-2.621.603-2.379-1.169-4.514-3.425-4.514-.245 0-.48.026-.708.073-.032.007-.065.021-.083.05-.021.033-.005.08.016.109a5.807 5.807 0 0 1 1.069 3.371Zm2.72 5.203c1.105.217 1.831.66 2.132 1.304a1.923 1.923 0 0 1 0 1.67c-.46.999-1.944 1.32-2.52 1.402-.12.018-.216-.085-.203-.205.295-2.767-2.049-4.08-2.655-4.381-.026-.014-.031-.034-.029-.047.002-.01.013-.024.033-.026 1.311-.025 2.722.156 3.243.283Zm-14.24-1.67c.164-.005.326-.02.483-.048a.158.158 0 0 0 .107-.244 5.765 5.765 0 0 1-.984-3.241c0-1.25.39-2.415 1.068-3.37.021-.03.037-.077.016-.11-.018-.028-.052-.043-.082-.05a3.52 3.52 0 0 0-.71-.073c-2.256 0-4.028 2.135-3.423 4.514.407 1.6 1.882 2.664 3.525 2.621Zm.16 1.412c.002.014-.003.034-.028.048-.607.302-2.95 1.614-2.656 4.38.013.121-.082.224-.201.207-.577-.083-2.06-.404-2.521-1.402a1.917 1.917 0 0 1 0-1.67c.3-.644 1.026-1.087 2.13-1.305.522-.127 1.932-.307 3.244-.283.02.003.03.017.032.025Z" clip-rule="evenodd"></path></svg>