<svg width="99" height="80" viewBox="0 0 99 80" fill="none" xmlns="http://www.w3.org/2000/svg">
<g clip-path="url(#clip0_137_804)">
<path fill-rule="evenodd" clip-rule="evenodd" d="M26.5302 44.9572C27.0338 44.9541 28.5303 44.8194 29.1642 46.9587C29.5912 48.3999 30.2714 50.7605 31.2047 54.0406H31.5849C32.5858 50.5825 33.2734 48.2218 33.6477 46.9587C34.2882 44.7971 35.8894 44.9572 36.5299 44.9572H41.4715V60.3291H36.4349V51.2702H36.0971L33.2895 60.3291H29.5001L26.6924 51.2635H26.3547V60.3291H21.3181V44.9572H26.5302ZM48.7039 44.9572V54.0228H49.1057L52.5209 46.5682C53.1839 45.0847 54.5969 44.9572 54.5969 44.9572H59.4708V60.3291H54.329V51.2635H53.9272L50.5789 58.7181C49.916 60.1948 48.436 60.3291 48.436 60.3291H43.5621V44.9572H48.7039ZM77.2431 52.262C76.5259 54.2945 74.2735 55.75 71.7798 55.75H66.3876V60.3291H61.4981V52.262H77.2431Z" fill="#0F754E"/>
<path fill-rule="evenodd" clip-rule="evenodd" d="M72.0155 44.9571H61.2416C61.498 48.3794 64.4452 51.3091 67.4962 51.3091H77.5827C78.1648 48.4648 76.161 44.9571 72.0155 44.9571Z" fill="url(#paint0_linear_137_804)"/>
<path d="M25.6684 21.1823H18.7859V33.5491H25.6684V21.1823Z" fill="#FF5F00"/>
<path d="M19.2228 27.3659C19.2228 24.8532 20.4027 22.6246 22.2162 21.1825C20.8834 20.1337 19.201 19.5001 17.3657 19.5001C13.0176 19.5001 9.49988 23.0178 9.49988 27.3659C9.49988 31.7139 13.0176 35.2316 17.3657 35.2316C19.201 35.2316 20.8834 34.598 22.2162 33.5493C20.4027 32.129 19.2228 29.8786 19.2228 27.3659Z" fill="#EB001B"/>
<path d="M34.9545 27.3657C34.9545 31.7138 31.4368 35.2315 27.0887 35.2315C25.2534 35.2315 23.571 34.5979 22.2382 33.5491C24.0735 32.1071 25.2315 29.8784 25.2315 27.3657C25.2315 24.8531 24.0517 22.6244 22.2382 21.1824C23.571 20.1336 25.2534 19.5 27.0887 19.5C31.4368 19.5 34.9545 23.0396 34.9545 27.3657Z" fill="#F79E1B"/>
<path d="M64.7726 33.6301H61.2377L63.4487 19.9593H66.9833L64.7726 33.6301Z" fill="#0487FF"/>
<path d="M77.5867 20.2935C76.8895 20.0169 75.7836 19.7115 74.4162 19.7115C70.9255 19.7115 68.4673 21.573 68.4522 24.2343C68.4232 26.1978 70.2122 27.2884 71.5502 27.9431C72.9178 28.6121 73.3827 29.0488 73.3827 29.6451C73.3688 30.561 72.2776 30.9831 71.2599 30.9831C69.8486 30.9831 69.0924 30.7655 67.9433 30.256L67.4778 30.0375L66.9831 33.1063C67.8122 33.484 69.3396 33.8192 70.9255 33.8339C74.6345 33.8339 77.0492 32.0012 77.0778 29.1652C77.0919 27.6089 76.1472 26.4165 74.1106 25.442C72.8743 24.8165 72.1171 24.3948 72.1171 23.7547C72.1316 23.1729 72.7575 22.577 74.1532 22.577C75.3023 22.5478 76.1466 22.824 76.7863 23.1004L77.106 23.2456L77.5867 20.2935Z" fill="#0487FF"/>
<path d="M82.2848 28.787C82.5759 28.0016 83.6961 24.962 83.6961 24.962C83.6814 24.9912 83.9866 24.1622 84.1612 23.6532L84.4082 24.8312C84.4082 24.8312 85.0776 28.1035 85.223 28.787C84.6705 28.787 82.983 28.787 82.2848 28.787ZM86.6482 19.9593H83.9139C83.0708 19.9593 82.4302 20.2063 82.0664 21.0936L76.8158 33.6299H80.5248C80.5248 33.6299 81.1355 31.9426 81.2667 31.5792C81.6736 31.5792 85.2817 31.5792 85.8052 31.5792C85.9067 32.0592 86.227 33.6299 86.227 33.6299H89.4999L86.6482 19.9593Z" fill="#0487FF"/>
<path d="M58.2853 19.9593L54.8235 29.2815L54.4452 27.3908C53.8052 25.2093 51.798 22.839 49.558 21.6605L52.7289 33.6156H56.4669L62.0231 19.9593H58.2853Z" fill="#0487FF"/>
<path d="M51.6089 19.9593H45.9217L45.8635 20.2355C50.2999 21.37 53.238 24.104 54.4452 27.3908L53.2089 21.1084C53.0053 20.2353 52.3798 19.9881 51.6089 19.9593Z" fill="#0487FF"/>
</g>
<defs>
<linearGradient id="paint0_linear_137_804" x1="77.6816" y1="48.9528" x2="61.2416" y2="48.9528" gradientUnits="userSpaceOnUse">
<stop stop-color="#1F5CD7"/>
<stop offset="1" stop-color="#02AEFF"/>
</linearGradient>
<clipPath id="clip0_137_804">
<rect width="80" height="41" fill="white" transform="translate(9.5 19.5)"/>
</clipPath>
</defs>
</svg>
