<svg width="173" height="36" viewBox="0 0 173 36" fill="none" xmlns="http://www.w3.org/2000/svg">
<g clip-path="url(#clip0_111_152)">
<path fill-rule="evenodd" clip-rule="evenodd" d="M51.2566 32.733H52.6926C53.4606 32.733 54.2519 32.7105 55.0135 32.6079C55.546 32.5363 56.088 32.4155 56.5871 32.2095C57.0543 32.0172 57.4855 31.7483 57.8794 31.4291C58.563 30.8759 59.1076 30.2038 59.4843 29.4C59.8596 28.5984 60.0371 27.7476 60.0371 26.8589C60.0371 24.9899 59.3063 23.5086 57.8656 22.3616C57.3733 21.9849 56.8361 21.6714 56.2538 21.4662C55.7966 21.3049 55.32 21.2076 54.8394 21.1563C54.1359 21.0811 53.3995 21.074 52.6926 21.074H51.2566V32.733ZM164.837 29.2603L162.965 29.2647V34.7095C162.965 35.0141 162.722 35.2631 162.424 35.2631H160.899C160.601 35.2631 160.358 35.0141 160.358 34.7095V19.0971C160.358 18.7925 160.601 18.544 160.899 18.544H164.543C165.435 18.544 166.404 18.5634 167.284 18.7186C167.938 18.834 168.575 19.0419 169.153 19.3753C169.976 19.8488 170.623 20.5209 171.092 21.3575C171.571 22.2113 171.806 23.139 171.806 24.1237C171.806 24.8806 171.676 25.5912 171.407 26.2429C171.11 26.9628 170.646 27.6119 170.052 28.1058C169.804 28.3132 169.555 28.4807 169.261 28.6642L172.143 34.3743C172.376 34.759 172.015 35.2631 171.59 35.2631H169.943C169.767 35.2631 169.626 35.1853 169.539 35.0411L166.611 29.2134C165.954 29.2492 165.346 29.2519 164.837 29.2603ZM163.966 27.0764C164.457 27.0764 164.952 27.0817 165.445 27.0667C166.196 27.0428 166.83 27.0044 167.546 26.7108C168.046 26.4711 168.443 26.1183 168.745 25.6447C169.045 25.1756 169.198 24.6649 169.198 24.1051C169.198 23.6249 169.092 23.1765 168.877 22.7494C168.479 21.9597 167.743 21.4004 166.895 21.2178C166.267 21.0825 165.499 21.074 164.859 21.074H162.965V27.0764H163.966ZM149.463 21.074V25.4382H156.306C156.605 25.4382 156.848 25.6867 156.848 25.9914V27.4147C156.848 27.7198 156.605 27.9683 156.306 27.9683H149.463V32.733H156.542C156.841 32.733 157.084 32.9815 157.084 33.2862V34.7095C157.084 35.0141 156.841 35.2631 156.542 35.2631H147.397C147.098 35.2631 146.855 35.0141 146.855 34.7095V19.0971C146.855 18.7925 147.098 18.544 147.397 18.544H156.542C156.841 18.544 157.084 18.7925 157.084 19.0971V20.5205C157.084 20.8256 156.841 21.074 156.542 21.074H149.463ZM137.156 19.0971C137.156 18.7925 136.913 18.544 136.614 18.544H135.09C134.792 18.544 134.548 18.7925 134.548 19.0971V34.7095C134.548 35.0141 134.792 35.2631 135.09 35.2631H144.443C144.742 35.2631 144.985 35.0141 144.985 34.7095V33.1531C144.985 32.8484 144.742 32.5995 144.443 32.5995H137.156V19.0971ZM124.85 19.0971C124.85 18.7925 124.606 18.544 124.308 18.544H122.784C122.485 18.544 122.242 18.7925 122.242 19.0971V34.7095C122.242 35.0141 122.485 35.2631 122.784 35.2631H132.137C132.435 35.2631 132.679 35.0141 132.679 34.7095V33.1531C132.679 32.8484 132.435 32.5995 132.137 32.5995H124.85V19.0971ZM111.335 21.074V25.4382H118.178C118.477 25.4382 118.72 25.6867 118.72 25.9914V27.4147C118.72 27.7198 118.477 27.9683 118.178 27.9683H111.335V32.733H118.414C118.713 32.733 118.956 32.9815 118.956 33.2862V34.7095C118.956 35.0141 118.713 35.2631 118.414 35.2631H109.269C108.97 35.2631 108.727 35.0141 108.727 34.7095V19.0971C108.727 18.7925 108.97 18.544 109.269 18.544H118.414C118.713 18.544 118.956 18.7925 118.956 19.0971V20.5205C118.956 20.8256 118.713 21.074 118.414 21.074H111.335ZM105.924 30.2255C105.932 30.8861 105.821 31.5281 105.586 32.1414C104.629 34.6295 102.108 35.6522 99.5626 35.531C97.3564 35.4254 95.1264 34.1771 94.0943 32.0074C93.9329 31.7289 94.0298 31.3725 94.3156 31.2279L95.7369 30.5085C96.0048 30.3728 96.3347 30.4868 96.4711 30.7623C96.9322 31.7753 98.1989 32.9086 99.7427 32.989C100.908 33.0496 102.301 32.6375 102.894 31.6351C103.142 31.216 103.259 30.7588 103.253 30.2662C103.237 28.9587 102.403 28.368 101.24 27.9877C100.435 27.7246 99.4228 27.4664 98.4543 27.164C97.0348 26.7209 95.8793 25.7959 95.2966 24.5273C94.7104 23.253 94.7537 21.7311 95.4948 20.4612C95.9312 19.7166 96.5443 19.1542 97.2984 18.7553C98.0816 18.3406 99.1942 18.1102 100.08 18.1332C101.476 18.1695 103.331 18.5104 104.773 20.4117C104.945 20.6867 104.857 21.0484 104.572 21.2014L103.242 21.915C103 22.045 102.703 21.9712 102.542 21.7413C101.776 20.6036 99.7942 20.3498 98.5989 20.9662C96.7914 21.8991 97.1941 24.2855 99.7003 25.0009C100.53 25.2375 101.4 25.493 102.277 25.753C104.394 26.3796 105.895 27.9294 105.924 30.2255ZM89.3608 35.2618C89.0625 35.2618 88.8192 35.0133 88.8192 34.7082V19.0985C88.8192 18.7938 89.0625 18.5449 89.3608 18.5449H90.8846C91.1834 18.5449 91.4267 18.7938 91.4267 19.0985V34.7082C91.4267 35.0133 91.1834 35.2618 90.8846 35.2618H89.3608ZM84.5406 21.8673C84.3826 22.126 84.0475 22.2051 83.7942 22.0442L83.4271 21.8103L82.5448 21.3124C81.7127 20.9029 80.8291 20.7004 79.8888 20.7004C78.8061 20.7004 77.8017 20.9821 76.8679 21.5419C75.0609 22.6252 73.7448 24.564 73.7422 26.8814C73.7452 27.7618 73.9227 28.605 74.295 29.4C74.6717 30.2034 75.2163 30.8759 75.8994 31.4291C76.2938 31.7483 76.7246 32.0172 77.1917 32.2095C77.6913 32.4155 78.2329 32.5363 78.7654 32.6079C79.5273 32.7105 80.3187 32.733 81.0863 32.733H82.5223V26.8814C82.5223 26.5763 82.7656 26.3278 83.0643 26.3278H84.5882C84.8869 26.3278 85.1302 26.5763 85.1302 26.8814L85.1307 34.7095C85.1307 35.0141 84.8874 35.2631 84.5886 35.2631H80.3568C79.4827 35.2631 78.5952 35.2065 77.7342 35.0464C76.9969 34.9098 76.2752 34.6887 75.6024 34.3496C74.9479 34.0193 74.3517 33.5877 73.8101 33.0894C72.9551 32.3032 72.3031 31.3601 71.8403 30.2839C71.3749 29.2015 71.1342 28.0633 71.1342 26.8814C71.1342 25.31 71.539 23.8451 72.3179 22.4903C73.0975 21.1337 74.1478 20.0412 75.4721 19.2373C76.7917 18.437 78.2242 18.0271 79.7589 18.0271C81.3538 18.0271 82.8643 18.4069 84.2583 19.1993C84.3977 19.2784 84.5137 19.3629 84.6479 19.4491L85.1744 19.7843C85.4276 19.9452 85.5051 20.2879 85.3471 20.5465L84.5406 21.8673ZM66.1318 35.2618C65.8331 35.2618 65.5898 35.0133 65.5898 34.7082V19.0985C65.5898 18.7938 65.8331 18.5449 66.1318 18.5449H67.6557C67.954 18.5449 68.1977 18.7938 68.1977 19.0985V34.7082C68.1977 35.0133 67.954 35.2618 67.6557 35.2618H66.1318ZM48.6486 34.7095V19.0971C48.6486 18.7925 48.8919 18.544 49.1906 18.544H53.3134C55.5711 18.544 57.8586 19.018 59.6579 20.4886C60.2787 20.9962 60.8068 21.5998 61.2476 22.2745C61.6961 22.9616 62.0502 23.7036 62.29 24.4929C62.5264 25.2689 62.645 26.0692 62.645 26.8814C62.645 28.0633 62.4043 29.2015 61.9389 30.2839C61.4757 31.3601 60.8237 32.3032 59.9687 33.0894C59.4271 33.5877 58.831 34.0193 58.1768 34.3496C57.5041 34.6887 56.782 34.9098 56.0451 35.0464C55.1836 35.2065 54.2965 35.2631 53.422 35.2631H49.1906C48.8919 35.2631 48.6486 35.0141 48.6486 34.7095Z" fill="#100C0D"/>
<path fill-rule="evenodd" clip-rule="evenodd" d="M31.454 30.4055C30.0176 30.4055 28.8535 31.6038 28.8535 33.0814C28.8535 34.559 30.0176 35.7569 31.454 35.7569C32.8899 35.7569 34.0541 34.559 34.0541 33.0814C34.0541 31.6038 32.8899 30.4055 31.454 30.4055ZM14.0325 30.4055C12.5966 30.4055 11.4324 31.6038 11.4324 33.0814C11.4324 34.559 12.5966 35.7569 14.0325 35.7569C15.4689 35.7569 16.633 34.559 16.633 33.0814C16.633 31.6038 15.4689 30.4055 14.0325 30.4055Z" fill="#6E6F6F"/>
<path fill-rule="evenodd" clip-rule="evenodd" d="M30.4359 24.2329C30.5523 24.7029 30.27 25.1795 29.805 25.2973C29.3404 25.4152 28.8692 25.1296 28.7532 24.6595C28.6367 24.1891 28.919 23.7124 29.3837 23.5946C29.8483 23.4772 30.3194 23.7628 30.4359 24.2329ZM16.4896 24.2329C16.6061 24.7029 16.3242 25.1795 15.8592 25.2973C15.3946 25.4152 14.9234 25.1296 14.807 24.6595C14.6905 24.1891 14.9728 23.7124 15.4374 23.5946C15.902 23.4772 16.3731 23.7628 16.4896 24.2329ZM31.8791 23.8671C32.1952 25.1436 31.4287 26.4376 30.167 26.7574C28.9052 27.0772 27.6261 26.3018 27.31 25.0253C26.9935 23.7488 27.7603 22.4548 29.0217 22.1346C30.2834 21.8148 31.563 22.5906 31.8791 23.8671ZM17.9328 23.8671C18.2494 25.1436 17.4825 26.4376 16.2207 26.7574C14.959 27.0772 13.6799 26.3018 13.3638 25.0253C13.0477 23.7488 13.8141 22.4548 15.0759 22.1346C16.3376 21.8148 17.6167 22.5906 17.9328 23.8671ZM22.6214 22.4127C21.5116 22.4127 20.6114 23.323 20.6114 24.4458C20.6114 25.5689 21.5116 26.4792 22.6214 26.4792C23.7316 26.4792 24.6314 25.5689 24.6314 24.4458C24.6314 23.323 23.7316 22.4127 22.6214 22.4127ZM19.1349 20.9189H15.6483C13.7309 20.9189 12.1622 22.506 12.1622 24.4458C12.1622 26.3859 13.7309 27.973 15.6483 27.973H29.5945C31.5119 27.973 33.0811 26.3859 33.0811 24.4458C33.0811 22.506 31.5119 20.9189 29.5945 20.9189H19.1349Z" fill="#3488D2"/>
<path fill-rule="evenodd" clip-rule="evenodd" d="M3.46622 0H10.3986C12.3048 0 13.8649 1.58743 13.8649 3.52703C13.8649 5.46707 12.3048 7.05405 10.3986 7.05405H3.46622C1.55963 7.05405 0 5.46707 0 3.52703C0 1.58743 1.55963 0 3.46622 0ZM12.6699 2.94795C12.9841 4.22437 12.2222 5.51832 10.9677 5.83852C9.71333 6.15828 8.44169 5.38253 8.12744 4.1061C7.81276 2.83012 8.57514 1.53574 9.82956 1.21597C11.084 0.896212 12.3556 1.67153 12.6699 2.94795ZM11.2351 3.31371C11.3509 3.78415 11.0702 4.26073 10.6083 4.37812C10.1464 4.49595 9.6776 4.21036 9.56223 3.74035C9.44643 3.27034 9.7271 2.79376 10.189 2.67593C10.6509 2.5581 11.1193 2.8437 11.2351 3.31371ZM3.46622 1.49369C2.36247 1.49369 1.46793 2.40435 1.46793 3.52703C1.46793 4.65014 2.36247 5.56037 3.46622 5.56037C4.56953 5.56037 5.4645 4.65014 5.4645 3.52703C5.4645 2.40435 4.56953 1.49369 3.46622 1.49369Z" fill="#67C23F"/>
<path fill-rule="evenodd" clip-rule="evenodd" d="M13.9289 2.94438L13.8894 2.67578L14.8889 6.7356H12.1975C10.2919 6.7356 8.73256 8.33091 8.73256 10.2807C8.73256 12.2309 10.2919 13.8266 12.1975 13.8266H16.625L18.2433 20.4342H15.5394C13.6342 20.4342 12.0753 22.0295 12.0753 23.9793C12.0753 25.1017 12.5912 26.1061 13.3924 26.7569C12.8115 26.2879 12.3718 25.6283 12.179 24.8414L7.78381 6.89016H10.4872C12.3924 6.89016 13.9517 5.29485 13.9517 3.34464C13.9517 3.20946 13.9436 3.0756 13.9289 2.94438ZM15.7929 16.7337C16.0605 17.8288 15.4108 18.9388 14.3407 19.2132C13.2711 19.4875 12.1863 18.8222 11.9183 17.7275C11.6498 16.6324 12.2999 15.5223 13.37 15.248C14.4401 14.9737 15.5244 15.639 15.7929 16.7337Z" fill="#6E6F6F"/>
<path fill-rule="evenodd" clip-rule="evenodd" d="M28.7499 13.7061L27 20.3488H29.689C31.6159 20.3488 33.193 21.9526 33.193 23.9127C33.193 25.0712 32.6425 26.1048 31.7944 26.7569C32.4001 26.2947 32.8636 25.6325 33.0734 24.8357L36.701 11.0642C36.7115 11.0248 36.721 10.9854 36.7297 10.946C36.369 12.5224 34.972 13.7061 33.3166 13.7061H28.7499ZM29.5515 16.6255C29.2629 17.7215 29.9022 18.8481 30.9797 19.1421C32.0576 19.4356 33.1652 18.7853 33.4541 17.6892C33.7427 16.5927 33.1029 15.4661 32.0254 15.1726C30.9479 14.8787 29.8404 15.5294 29.5515 16.6255Z" fill="#6E6F6F"/>
<path fill-rule="evenodd" clip-rule="evenodd" d="M15.6893 7.29736H12.2235C10.3169 7.29736 8.75677 8.88435 8.75677 10.824C8.75677 12.764 10.3169 14.3514 12.2235 14.3514H33.0207C34.9269 14.3514 36.4865 12.764 36.4865 10.824C36.4865 8.88435 34.9269 7.29736 33.0207 7.29736H15.6893ZM35.2919 10.2449C35.6062 11.5217 34.8442 12.8157 33.5898 13.1354C32.3353 13.4552 31.0637 12.6799 30.749 11.4035C30.4347 10.127 31.1971 8.8331 32.4516 8.5129C33.706 8.19314 34.9777 8.96889 35.2919 10.2449ZM14.4685 10.1875C14.7827 11.4639 14.0208 12.7579 12.7663 13.0776C11.5119 13.3974 10.2402 12.6221 9.92597 11.3456C9.61129 10.0692 10.3737 8.77528 11.6281 8.45552C12.8825 8.13576 14.1542 8.91107 14.4685 10.1875ZM19.1556 8.79105C18.0518 8.79105 17.1573 9.70128 17.1573 10.824C17.1573 11.9471 18.0518 12.8573 19.1556 12.8573C20.2594 12.8573 21.1539 11.9471 21.1539 10.824C21.1539 9.70128 20.2594 8.79105 19.1556 8.79105ZM26.0881 8.79105C24.9844 8.79105 24.0898 9.70128 24.0898 10.824C24.0898 11.9471 24.9844 12.8573 26.0881 12.8573C27.1915 12.8573 28.086 11.9471 28.086 10.824C28.086 9.70128 27.1915 8.79105 26.0881 8.79105ZM13.0336 10.5532C13.1495 11.0233 12.8688 11.4998 12.4069 11.6177C11.945 11.7355 11.4766 11.4499 11.3608 10.9799C11.245 10.5094 11.5257 10.0333 11.9876 9.91548C12.4495 9.79765 12.9178 10.0832 13.0336 10.5532ZM33.8571 10.6111C33.9729 11.0811 33.6922 11.5577 33.2303 11.6755C32.768 11.7933 32.3 11.5077 32.1842 11.0377C32.068 10.5673 32.3487 10.0911 32.811 9.97286C33.2729 9.85503 33.7413 10.1406 33.8571 10.6111Z" fill="#E71C0F"/>
<path d="M53.6689 14H52.1797V9.65918H50.8076C50.7393 10.46 50.6579 11.1419 50.5635 11.7051C50.4691 12.2682 50.3486 12.7272 50.2021 13.082C50.0557 13.4336 49.8734 13.6908 49.6553 13.8535C49.4372 14.0163 49.1686 14.0977 48.8496 14.0977C48.6738 14.0977 48.516 14.0846 48.376 14.0586C48.2393 14.0326 48.1139 13.9935 48 13.9414V12.75C48.0716 12.7793 48.1481 12.8037 48.2295 12.8232C48.3109 12.8395 48.3939 12.8477 48.4785 12.8477C48.5729 12.8477 48.6624 12.8102 48.7471 12.7354C48.8317 12.6605 48.9115 12.5319 48.9863 12.3496C49.0612 12.1641 49.1312 11.9085 49.1963 11.583C49.2646 11.2575 49.3265 10.8457 49.3818 10.3477C49.4372 9.84961 49.4893 9.2474 49.5381 8.54102H53.6689V14ZM62.7754 11.2607C62.7754 11.8662 62.6712 12.3805 62.4629 12.8037C62.2578 13.2269 61.9632 13.5492 61.5791 13.7705C61.1982 13.9886 60.7441 14.0977 60.2168 14.0977C59.7676 14.0977 59.3656 14.013 59.0107 13.8438C58.6559 13.6745 58.3662 13.4173 58.1416 13.0723C57.917 12.724 57.7721 12.2829 57.707 11.749H56.7256V14H55.2363V8.54102H56.7256V10.6406H57.7266C57.7949 10.1654 57.9398 9.76497 58.1611 9.43945C58.3857 9.11068 58.6755 8.86165 59.0303 8.69238C59.3851 8.52311 59.7904 8.43848 60.2461 8.43848C60.7376 8.43848 61.1722 8.54753 61.5498 8.76562C61.9307 8.98372 62.2301 9.30273 62.4482 9.72266C62.6663 10.1426 62.7754 10.6553 62.7754 11.2607ZM59.2061 11.2607C59.2061 11.6188 59.2402 11.9199 59.3086 12.1641C59.3802 12.4082 59.4909 12.5921 59.6406 12.7158C59.7936 12.8395 59.9922 12.9014 60.2363 12.9014C60.4772 12.9014 60.6725 12.8395 60.8223 12.7158C60.972 12.5921 61.0811 12.4082 61.1494 12.1641C61.221 11.9199 61.2568 11.6188 61.2568 11.2607C61.2568 10.8994 61.221 10.5999 61.1494 10.3623C61.0811 10.1214 60.9704 9.94076 60.8174 9.82031C60.6676 9.69987 60.4707 9.63965 60.2266 9.63965C59.9857 9.63965 59.7904 9.69987 59.6406 9.82031C59.4909 9.94076 59.3802 10.1214 59.3086 10.3623C59.2402 10.5999 59.2061 10.8994 59.2061 11.2607ZM63.6738 10.7285C63.6738 9.92448 63.7731 9.24089 63.9717 8.67773C64.1702 8.11458 64.486 7.66536 64.9189 7.33008C65.3519 6.99154 65.9199 6.76204 66.623 6.6416C66.9746 6.57975 67.3311 6.5293 67.6924 6.49023C68.057 6.44792 68.4346 6.40072 68.8252 6.34863L68.9961 7.65234C68.8268 7.67188 68.6429 7.69303 68.4443 7.71582C68.2458 7.73861 68.0456 7.76302 67.8438 7.78906C67.6419 7.81185 67.4466 7.83626 67.2578 7.8623C67.069 7.88509 66.8981 7.90788 66.7451 7.93066C66.4131 7.98275 66.1364 8.06413 65.915 8.1748C65.6937 8.28548 65.5244 8.46126 65.4072 8.70215C65.29 8.94303 65.2184 9.28971 65.1924 9.74219H65.2656C65.3438 9.61849 65.4544 9.49316 65.5977 9.36621C65.7409 9.236 65.9183 9.12858 66.1299 9.04395C66.3415 8.95605 66.5856 8.91211 66.8623 8.91211C67.2985 8.91211 67.6761 9.00163 67.9951 9.18066C68.3141 9.3597 68.5599 9.62663 68.7324 9.98145C68.9082 10.333 68.9961 10.7725 68.9961 11.2998C68.9961 11.9183 68.8822 12.4359 68.6543 12.8525C68.4297 13.266 68.1172 13.5768 67.7168 13.7852C67.3164 13.9935 66.8525 14.0977 66.3252 14.0977C65.9215 14.0977 65.557 14.0244 65.2314 13.8779C64.9059 13.7314 64.626 13.515 64.3916 13.2285C64.1605 12.9421 63.9831 12.5905 63.8594 12.1738C63.7357 11.7539 63.6738 11.2721 63.6738 10.7285ZM66.4131 12.8916C66.6247 12.8916 66.8086 12.846 66.9648 12.7549C67.1243 12.6605 67.248 12.5075 67.3359 12.2959C67.4271 12.0811 67.4727 11.793 67.4727 11.4316C67.4727 10.9954 67.3994 10.6504 67.2529 10.3965C67.1097 10.1393 66.8639 10.0107 66.5156 10.0107C66.304 10.0107 66.1055 10.0628 65.9199 10.167C65.7376 10.2679 65.583 10.3851 65.4561 10.5186C65.3291 10.6488 65.2412 10.7594 65.1924 10.8506C65.1924 11.1077 65.2119 11.3584 65.251 11.6025C65.2933 11.8434 65.36 12.0615 65.4512 12.2568C65.5423 12.4521 65.666 12.6068 65.8223 12.7207C65.9818 12.8346 66.1787 12.8916 66.4131 12.8916ZM75.1875 11.2607C75.1875 11.7165 75.1257 12.1201 75.002 12.4717C74.8815 12.8232 74.7041 13.1211 74.4697 13.3652C74.2386 13.6061 73.9587 13.7884 73.6299 13.9121C73.3044 14.0358 72.9365 14.0977 72.5264 14.0977C72.1423 14.0977 71.7891 14.0358 71.4668 13.9121C71.1478 13.7884 70.8695 13.6061 70.6318 13.3652C70.3975 13.1211 70.2152 12.8232 70.085 12.4717C69.958 12.1201 69.8945 11.7165 69.8945 11.2607C69.8945 10.6553 70.002 10.1426 70.2168 9.72266C70.4316 9.30273 70.7376 8.98372 71.1348 8.76562C71.5319 8.54753 72.0055 8.43848 72.5557 8.43848C73.0667 8.43848 73.5192 8.54753 73.9131 8.76562C74.3102 8.98372 74.6211 9.30273 74.8457 9.72266C75.0736 10.1426 75.1875 10.6553 75.1875 11.2607ZM71.4131 11.2607C71.4131 11.6188 71.4521 11.9199 71.5303 12.1641C71.6084 12.4082 71.7305 12.5921 71.8965 12.7158C72.0625 12.8395 72.279 12.9014 72.5459 12.9014C72.8096 12.9014 73.0228 12.8395 73.1855 12.7158C73.3516 12.5921 73.472 12.4082 73.5469 12.1641C73.625 11.9199 73.6641 11.6188 73.6641 11.2607C73.6641 10.8994 73.625 10.5999 73.5469 10.3623C73.472 10.1214 73.3516 9.94076 73.1855 9.82031C73.0195 9.69987 72.8031 9.63965 72.5361 9.63965C72.1423 9.63965 71.8558 9.77474 71.6768 10.0449C71.501 10.3151 71.4131 10.7204 71.4131 11.2607ZM77.8584 8.54102V10.6992C77.8584 10.8099 77.8535 10.9499 77.8438 11.1191C77.8372 11.2852 77.8275 11.4544 77.8145 11.627C77.8014 11.7995 77.7884 11.9541 77.7754 12.0908C77.7624 12.2275 77.7526 12.3203 77.7461 12.3691L80.2656 8.54102H82.0576V14H80.6172V11.8223C80.6172 11.6432 80.6237 11.4463 80.6367 11.2314C80.6497 11.0133 80.6644 10.8083 80.6807 10.6162C80.6969 10.4242 80.7083 10.2793 80.7148 10.1816L78.2051 14H76.418V8.54102H77.8584ZM81.6475 6.19238C81.6117 6.53743 81.514 6.8418 81.3545 7.10547C81.195 7.36914 80.946 7.57422 80.6074 7.7207C80.2689 7.86719 79.8132 7.94043 79.2402 7.94043C78.651 7.94043 78.1921 7.87044 77.8633 7.73047C77.5345 7.58724 77.3001 7.38542 77.1602 7.125C77.0202 6.86133 76.9355 6.55046 76.9062 6.19238H78.2393C78.2686 6.56022 78.3613 6.80436 78.5176 6.9248C78.6738 7.04199 78.9245 7.10059 79.2695 7.10059C79.556 7.10059 79.7904 7.03548 79.9727 6.90527C80.1549 6.77507 80.264 6.53743 80.2998 6.19238H81.6475ZM93.1025 8.54102V14H91.7109V11.3193C91.7109 11.0557 91.7158 10.7969 91.7256 10.543C91.7354 10.2891 91.75 10.0547 91.7695 9.83984H91.7402L90.2314 14H89.1133L87.5801 9.83008H87.541C87.5671 10.0482 87.585 10.2826 87.5947 10.5332C87.6045 10.7839 87.6094 11.0589 87.6094 11.3584V14H86.2227V8.54102H88.332L89.6895 12.2422L91.0713 8.54102H93.1025ZM96.9062 8.42871C97.6387 8.42871 98.2002 8.58822 98.5908 8.90723C98.9814 9.22624 99.1768 9.71126 99.1768 10.3623V14H98.1367L97.8486 13.2578H97.8096C97.6533 13.4531 97.4938 13.6126 97.3311 13.7363C97.1683 13.86 96.9811 13.9512 96.7695 14.0098C96.5579 14.0684 96.3008 14.0977 95.998 14.0977C95.6758 14.0977 95.3861 14.0358 95.1289 13.9121C94.875 13.7884 94.6748 13.5996 94.5283 13.3457C94.3818 13.0885 94.3086 12.763 94.3086 12.3691C94.3086 11.7897 94.512 11.3633 94.9189 11.0898C95.3258 10.8132 95.9362 10.6602 96.75 10.6309L97.6973 10.6016V10.3623C97.6973 10.0758 97.6224 9.86589 97.4727 9.73242C97.3229 9.59896 97.1146 9.53223 96.8477 9.53223C96.584 9.53223 96.3252 9.56966 96.0713 9.64453C95.8174 9.7194 95.5635 9.8138 95.3096 9.92773L94.8164 8.92188C95.1061 8.76888 95.43 8.64844 95.7881 8.56055C96.1494 8.47266 96.5221 8.42871 96.9062 8.42871ZM97.6973 11.4707L97.1211 11.4902C96.6393 11.5033 96.304 11.5895 96.1152 11.749C95.9297 11.9085 95.8369 12.1185 95.8369 12.3789C95.8369 12.6068 95.9036 12.7695 96.0371 12.8672C96.1706 12.9616 96.3447 13.0088 96.5596 13.0088C96.8786 13.0088 97.1471 12.9144 97.3652 12.7256C97.5866 12.5368 97.6973 12.2682 97.6973 11.9199V11.4707ZM104.484 8.54102V9.65918H102.204V14H100.715V8.54102H104.484ZM107.736 8.42871C108.469 8.42871 109.03 8.58822 109.421 8.90723C109.812 9.22624 110.007 9.71126 110.007 10.3623V14H108.967L108.679 13.2578H108.64C108.483 13.4531 108.324 13.6126 108.161 13.7363C107.998 13.86 107.811 13.9512 107.6 14.0098C107.388 14.0684 107.131 14.0977 106.828 14.0977C106.506 14.0977 106.216 14.0358 105.959 13.9121C105.705 13.7884 105.505 13.5996 105.358 13.3457C105.212 13.0885 105.139 12.763 105.139 12.3691C105.139 11.7897 105.342 11.3633 105.749 11.0898C106.156 10.8132 106.766 10.6602 107.58 10.6309L108.527 10.6016V10.3623C108.527 10.0758 108.452 9.86589 108.303 9.73242C108.153 9.59896 107.945 9.53223 107.678 9.53223C107.414 9.53223 107.155 9.56966 106.901 9.64453C106.647 9.7194 106.394 9.8138 106.14 9.92773L105.646 8.92188C105.936 8.76888 106.26 8.64844 106.618 8.56055C106.979 8.47266 107.352 8.42871 107.736 8.42871ZM108.527 11.4707L107.951 11.4902C107.469 11.5033 107.134 11.5895 106.945 11.749C106.76 11.9085 106.667 12.1185 106.667 12.3789C106.667 12.6068 106.734 12.7695 106.867 12.8672C107.001 12.9616 107.175 13.0088 107.39 13.0088C107.709 13.0088 107.977 12.9144 108.195 12.7256C108.417 12.5368 108.527 12.2682 108.527 11.9199V11.4707ZM113.532 8.43848C113.926 8.43848 114.294 8.49056 114.636 8.59473C114.978 8.69564 115.254 8.85352 115.466 9.06836C115.677 9.27995 115.783 9.55339 115.783 9.88867C115.783 10.2174 115.684 10.4795 115.485 10.6748C115.287 10.8669 115.023 11.0052 114.694 11.0898V11.1387C114.925 11.194 115.134 11.2689 115.319 11.3633C115.508 11.4577 115.658 11.5879 115.769 11.7539C115.879 11.9199 115.935 12.138 115.935 12.4082C115.935 12.7109 115.839 12.9909 115.646 13.248C115.454 13.502 115.16 13.707 114.763 13.8633C114.369 14.0195 113.863 14.0977 113.244 14.0977C112.951 14.0977 112.674 14.0846 112.414 14.0586C112.157 14.0326 111.921 13.9951 111.706 13.9463C111.491 13.8942 111.304 13.8324 111.145 13.7607V12.5303C111.369 12.6344 111.646 12.7305 111.975 12.8184C112.307 12.9062 112.66 12.9502 113.034 12.9502C113.304 12.9502 113.549 12.9307 113.767 12.8916C113.988 12.8525 114.162 12.7874 114.289 12.6963C114.419 12.6019 114.484 12.4766 114.484 12.3203C114.484 12.1738 114.427 12.0534 114.313 11.959C114.203 11.8613 114.032 11.7897 113.801 11.7441C113.573 11.6953 113.283 11.6709 112.932 11.6709H112.355V10.6406H112.902C113.397 10.6406 113.78 10.5999 114.05 10.5186C114.32 10.4372 114.455 10.2874 114.455 10.0693C114.455 9.89355 114.369 9.76172 114.196 9.67383C114.024 9.58594 113.739 9.54199 113.342 9.54199C113.085 9.54199 112.801 9.57292 112.492 9.63477C112.183 9.69336 111.893 9.77799 111.623 9.88867L111.184 8.84863C111.499 8.72819 111.841 8.63053 112.209 8.55566C112.58 8.47754 113.021 8.43848 113.532 8.43848ZM118.542 8.54102V10.6992C118.542 10.8099 118.537 10.9499 118.527 11.1191C118.521 11.2852 118.511 11.4544 118.498 11.627C118.485 11.7995 118.472 11.9541 118.459 12.0908C118.446 12.2275 118.436 12.3203 118.43 12.3691L120.949 8.54102H122.741V14H121.301V11.8223C121.301 11.6432 121.307 11.4463 121.32 11.2314C121.333 11.0133 121.348 10.8083 121.364 10.6162C121.381 10.4242 121.392 10.2793 121.398 10.1816L118.889 14H117.102V8.54102H118.542ZM125.798 8.54102V10.6406H127.878V8.54102H129.367V14H127.878V11.749H125.798V14H124.309V8.54102H125.798ZM135.017 8.54102V10.6406H137.097V8.54102H138.586V14H137.097V11.749H135.017V14H133.527V8.54102H135.017ZM142.385 8.42871C143.117 8.42871 143.679 8.58822 144.069 8.90723C144.46 9.22624 144.655 9.71126 144.655 10.3623V14H143.615L143.327 13.2578H143.288C143.132 13.4531 142.972 13.6126 142.81 13.7363C142.647 13.86 142.46 13.9512 142.248 14.0098C142.036 14.0684 141.779 14.0977 141.477 14.0977C141.154 14.0977 140.865 14.0358 140.607 13.9121C140.354 13.7884 140.153 13.5996 140.007 13.3457C139.86 13.0885 139.787 12.763 139.787 12.3691C139.787 11.7897 139.991 11.3633 140.397 11.0898C140.804 10.8132 141.415 10.6602 142.229 10.6309L143.176 10.6016V10.3623C143.176 10.0758 143.101 9.86589 142.951 9.73242C142.801 9.59896 142.593 9.53223 142.326 9.53223C142.062 9.53223 141.804 9.56966 141.55 9.64453C141.296 9.7194 141.042 9.8138 140.788 9.92773L140.295 8.92188C140.585 8.76888 140.909 8.64844 141.267 8.56055C141.628 8.47266 142.001 8.42871 142.385 8.42871ZM143.176 11.4707L142.6 11.4902C142.118 11.5033 141.783 11.5895 141.594 11.749C141.408 11.9085 141.315 12.1185 141.315 12.3789C141.315 12.6068 141.382 12.7695 141.516 12.8672C141.649 12.9616 141.823 13.0088 142.038 13.0088C142.357 13.0088 142.626 12.9144 142.844 12.7256C143.065 12.5368 143.176 12.2682 143.176 11.9199V11.4707ZM148.459 10.7285C148.459 9.92448 148.558 9.24089 148.757 8.67773C148.955 8.11458 149.271 7.66536 149.704 7.33008C150.137 6.99154 150.705 6.76204 151.408 6.6416C151.76 6.57975 152.116 6.5293 152.478 6.49023C152.842 6.44792 153.22 6.40072 153.61 6.34863L153.781 7.65234C153.612 7.67188 153.428 7.69303 153.229 7.71582C153.031 7.73861 152.831 7.76302 152.629 7.78906C152.427 7.81185 152.232 7.83626 152.043 7.8623C151.854 7.88509 151.683 7.90788 151.53 7.93066C151.198 7.98275 150.922 8.06413 150.7 8.1748C150.479 8.28548 150.31 8.46126 150.192 8.70215C150.075 8.94303 150.004 9.28971 149.978 9.74219H150.051C150.129 9.61849 150.24 9.49316 150.383 9.36621C150.526 9.236 150.703 9.12858 150.915 9.04395C151.127 8.95605 151.371 8.91211 151.647 8.91211C152.084 8.91211 152.461 9.00163 152.78 9.18066C153.099 9.3597 153.345 9.62663 153.518 9.98145C153.693 10.333 153.781 10.7725 153.781 11.2998C153.781 11.9183 153.667 12.4359 153.439 12.8525C153.215 13.266 152.902 13.5768 152.502 13.7852C152.102 13.9935 151.638 14.0977 151.11 14.0977C150.707 14.0977 150.342 14.0244 150.017 13.8779C149.691 13.7314 149.411 13.515 149.177 13.2285C148.946 12.9421 148.768 12.5905 148.645 12.1738C148.521 11.7539 148.459 11.2721 148.459 10.7285ZM151.198 12.8916C151.41 12.8916 151.594 12.846 151.75 12.7549C151.91 12.6605 152.033 12.5075 152.121 12.2959C152.212 12.0811 152.258 11.793 152.258 11.4316C152.258 10.9954 152.185 10.6504 152.038 10.3965C151.895 10.1393 151.649 10.0107 151.301 10.0107C151.089 10.0107 150.891 10.0628 150.705 10.167C150.523 10.2679 150.368 10.3851 150.241 10.5186C150.114 10.6488 150.026 10.7594 149.978 10.8506C149.978 11.1077 149.997 11.3584 150.036 11.6025C150.078 11.8434 150.145 12.0615 150.236 12.2568C150.327 12.4521 150.451 12.6068 150.607 12.7207C150.767 12.8346 150.964 12.8916 151.198 12.8916ZM157.248 8.42871C157.98 8.42871 158.542 8.58822 158.933 8.90723C159.323 9.22624 159.519 9.71126 159.519 10.3623V14H158.479L158.19 13.2578H158.151C157.995 13.4531 157.836 13.6126 157.673 13.7363C157.51 13.86 157.323 13.9512 157.111 14.0098C156.9 14.0684 156.643 14.0977 156.34 14.0977C156.018 14.0977 155.728 14.0358 155.471 13.9121C155.217 13.7884 155.017 13.5996 154.87 13.3457C154.724 13.0885 154.65 12.763 154.65 12.3691C154.65 11.7897 154.854 11.3633 155.261 11.0898C155.668 10.8132 156.278 10.6602 157.092 10.6309L158.039 10.6016V10.3623C158.039 10.0758 157.964 9.86589 157.814 9.73242C157.665 9.59896 157.456 9.53223 157.189 9.53223C156.926 9.53223 156.667 9.56966 156.413 9.64453C156.159 9.7194 155.905 9.8138 155.651 9.92773L155.158 8.92188C155.448 8.76888 155.772 8.64844 156.13 8.56055C156.491 8.47266 156.864 8.42871 157.248 8.42871ZM158.039 11.4707L157.463 11.4902C156.981 11.5033 156.646 11.5895 156.457 11.749C156.271 11.9085 156.179 12.1185 156.179 12.3789C156.179 12.6068 156.245 12.7695 156.379 12.8672C156.512 12.9616 156.687 13.0088 156.901 13.0088C157.22 13.0088 157.489 12.9144 157.707 12.7256C157.928 12.5368 158.039 12.2682 158.039 11.9199V11.4707ZM163.044 8.43848C163.438 8.43848 163.806 8.49056 164.147 8.59473C164.489 8.69564 164.766 8.85352 164.978 9.06836C165.189 9.27995 165.295 9.55339 165.295 9.88867C165.295 10.2174 165.196 10.4795 164.997 10.6748C164.799 10.8669 164.535 11.0052 164.206 11.0898V11.1387C164.437 11.194 164.646 11.2689 164.831 11.3633C165.02 11.4577 165.17 11.5879 165.28 11.7539C165.391 11.9199 165.446 12.138 165.446 12.4082C165.446 12.7109 165.35 12.9909 165.158 13.248C164.966 13.502 164.672 13.707 164.274 13.8633C163.881 14.0195 163.374 14.0977 162.756 14.0977C162.463 14.0977 162.186 14.0846 161.926 14.0586C161.669 14.0326 161.433 13.9951 161.218 13.9463C161.003 13.8942 160.816 13.8324 160.656 13.7607V12.5303C160.881 12.6344 161.158 12.7305 161.486 12.8184C161.818 12.9062 162.172 12.9502 162.546 12.9502C162.816 12.9502 163.06 12.9307 163.278 12.8916C163.5 12.8525 163.674 12.7874 163.801 12.6963C163.931 12.6019 163.996 12.4766 163.996 12.3203C163.996 12.1738 163.939 12.0534 163.825 11.959C163.715 11.8613 163.544 11.7897 163.312 11.7441C163.085 11.6953 162.795 11.6709 162.443 11.6709H161.867V10.6406H162.414C162.909 10.6406 163.291 10.5999 163.562 10.5186C163.832 10.4372 163.967 10.2874 163.967 10.0693C163.967 9.89355 163.881 9.76172 163.708 9.67383C163.535 9.58594 163.251 9.54199 162.854 9.54199C162.596 9.54199 162.313 9.57292 162.004 9.63477C161.695 9.69336 161.405 9.77799 161.135 9.88867L160.695 8.84863C161.011 8.72819 161.353 8.63053 161.721 8.55566C162.092 8.47754 162.533 8.43848 163.044 8.43848ZM168.864 8.43848C169.369 8.43848 169.803 8.53613 170.168 8.73145C170.533 8.9235 170.814 9.20345 171.013 9.57129C171.211 9.93913 171.311 10.3883 171.311 10.9189V11.6416H167.79C167.806 12.0615 167.932 12.3919 168.166 12.6328C168.404 12.8704 168.732 12.9893 169.152 12.9893C169.501 12.9893 169.82 12.9535 170.109 12.8818C170.399 12.8102 170.697 12.7028 171.003 12.5596V13.7119C170.733 13.8454 170.45 13.943 170.153 14.0049C169.86 14.0667 169.504 14.0977 169.084 14.0977C168.537 14.0977 168.052 13.9967 167.629 13.7949C167.209 13.5931 166.879 13.2855 166.638 12.8721C166.4 12.4587 166.281 11.9378 166.281 11.3096C166.281 10.6715 166.389 10.141 166.604 9.71777C166.822 9.29134 167.124 8.97233 167.512 8.76074C167.899 8.5459 168.35 8.43848 168.864 8.43848ZM168.874 9.49805C168.584 9.49805 168.343 9.59082 168.151 9.77637C167.963 9.96191 167.854 10.2533 167.824 10.6504H169.914C169.911 10.429 169.87 10.2321 169.792 10.0596C169.717 9.88704 169.603 9.75033 169.45 9.64941C169.3 9.5485 169.108 9.49805 168.874 9.49805Z" fill="#6E6F6F"/>
</g>
<defs>
<clipPath id="clip0_111_152">
<rect width="173" height="36" fill="white"/>
</clipPath>
</defs>
</svg>
