<svg width="22" height="19" viewBox="0 0 22 19" fill="none" xmlns="http://www.w3.org/2000/svg">
                            <path d="M21.4271 14.9286V16.7664C21.4271 17.7801 20.5914 18.6042 19.5651 18.6042H3.55209C1.90908 18.6042 0.572922 17.2854 0.572922 15.6637C0.572922 15.6637 0.572922 3.1777 0.572922 3.16667C0.572922 1.545 1.90908 0.226196 3.55209 0.226196H17.3307C17.9482 0.226196 18.4479 0.720196 18.4479 1.32887C18.4479 1.93755 17.9482 2.43155 17.3307 2.43155H3.55209C3.14171 2.43155 2.8073 2.76089 2.8073 3.16667C2.8073 3.57246 3.14171 3.90179 3.55209 3.90179H19.5651C20.5914 3.90179 21.4271 4.72586 21.4271 5.73959V7.57739H17.7031C15.6497 7.57739 13.9792 9.22626 13.9792 11.253C13.9792 13.2797 15.6497 14.9286 17.7031 14.9286H21.4271Z" fill="#BABBCF"></path>
                            <path d="M21.4271 9.04761V13.4583H17.7031C16.469 13.4583 15.4688 12.4711 15.4688 11.253C15.4688 10.0349 16.469 9.04761 17.7031 9.04761H21.4271Z" fill="#BABBCF"></path>
                        </svg>