<svg width="211" height="86" viewBox="0 0 211 86" fill="none" xmlns="http://www.w3.org/2000/svg">
<path fill-rule="evenodd" clip-rule="evenodd" d="M92.644 21.3686L96.7264 25.3702C97.2234 25.8632 98.0409 25.8551 98.533 25.3506L100.241 23.5971C100.734 23.0959 100.724 22.2763 100.228 21.78L96.043 17.6004L96.0365 17.5955L95.9825 17.5367C94.9901 16.549 93.3846 16.549 92.3939 17.5367C91.4031 18.5261 91.4031 20.131 92.3939 21.1188C92.4429 21.1677 92.492 21.2134 92.5459 21.2592C92.5753 21.2967 92.608 21.3343 92.644 21.3686Z" fill="#FFB000"/>
<path fill-rule="evenodd" clip-rule="evenodd" d="M84.7285 39.6532L90.4491 39.7038C91.1521 39.7087 91.7227 40.2932 91.7129 40.9969L91.6819 43.441C91.672 44.1446 91.0867 44.7177 90.3821 44.7177H84.377C82.9759 44.7177 81.8413 43.5846 81.8413 42.1871C81.8413 40.7879 82.9759 39.6532 84.377 39.6532C84.4457 39.6532 84.5127 39.6565 84.5814 39.6614C84.6304 39.6565 84.6795 39.6532 84.7285 39.6532Z" fill="#FFB000"/>
<path fill-rule="evenodd" clip-rule="evenodd" d="M120.064 8.18732L120.014 13.9079C120.009 14.6109 119.424 15.1815 118.721 15.1717L116.277 15.1406C115.573 15.1308 115 14.5455 115 13.8409V7.83581C115 6.43468 116.133 5.30005 117.53 5.30005C118.93 5.30005 120.064 6.43468 120.064 7.83581C120.064 7.90447 120.061 7.97151 120.056 8.04018C120.061 8.08922 120.064 8.13827 120.064 8.18732Z" fill="#FFB000"/>
<path d="M92.5982 71.1307H98.1962C100.984 71.1307 101.262 69.7364 102.086 68.0907L117.483 37.2694L127.394 60.0841L114.114 56.9641C113.396 56.7943 111.359 56.7454 110.934 59.2237L106.85 82.9543C106.515 84.9119 108.475 86.6523 110.494 85.6727L115.929 83.0409C117.738 82.1625 118.126 81.609 118.394 79.9029L120.294 67.7527L128.356 69.8801C131.32 70.6605 133.056 71.209 134.325 71.1943L140.165 71.1307C143.016 71.0996 143.441 68.8074 142.808 67.3592L125.086 26.649C124.342 24.938 123.036 24.9788 122.344 24.9788L112.961 24.9592C112.247 24.9576 111.209 25.2368 110.528 26.6131L90.2668 67.4605C89.4494 69.1062 90.7344 71.1307 92.5982 71.1307Z" fill="#FFB000"/>
<path fill-rule="evenodd" clip-rule="evenodd" d="M149.318 39.6532L143.599 39.7038C142.896 39.7087 142.324 40.2932 142.333 40.9969L142.369 43.441C142.376 44.1446 142.963 44.7193 143.666 44.7193L149.586 44.7177H149.589L149.671 44.7193C151.07 44.7193 152.207 43.5846 152.207 42.1871C152.207 40.7879 151.07 39.6532 149.671 39.6532C149.601 39.6532 149.534 39.6565 149.467 39.6614C149.419 39.6565 149.369 39.6532 149.318 39.6532Z" fill="#FFB000"/>
<path fill-rule="evenodd" clip-rule="evenodd" d="M26.4296 34.0351C32.7535 34.0351 37.243 35.3527 36.2032 42.8841C35.1633 50.4172 30.2962 51.7331 23.9723 51.7331H19.4142L21.8682 34.0351H26.4296ZM13.3666 24.9592C12.3987 24.9592 10.9698 25.5143 10.7638 27.2074L5.02849 68.0515C4.79797 69.689 5.9931 71.0784 7.6411 71.0784H14.2658C16.2097 71.0784 16.9029 69.849 17.1302 68.2033L18.1569 60.8139H26.4051C38.6604 60.8139 46.6078 55.2858 48.3245 42.8841C50.0444 30.4825 43.6241 24.9592 31.3785 24.9592H13.3666Z" fill="#0157CF"/>
<path fill-rule="evenodd" clip-rule="evenodd" d="M193.044 68.1054C192.816 69.7494 194.015 71.0784 195.664 71.0784H202.847C203.852 71.0784 204.934 70.1903 205.158 68.5445L210.73 27.9927C210.967 26.2833 209.766 24.9592 208.052 24.9592H202.059C200.411 24.9592 198.843 26.2833 198.606 27.9927L193.044 68.1054Z" fill="#0157CF"/>
<path fill-rule="evenodd" clip-rule="evenodd" d="M59.1181 24.9592C57.4195 24.9592 56.4009 26.1347 56.432 27.4229L50.8062 68.1168C50.5757 69.7576 51.7741 71.0784 53.4253 71.0784H79.9307C81.6146 71.0784 82.3749 70.0515 82.6021 68.6049L83.1646 65.0229C83.4 63.3135 82.195 61.9976 80.5519 61.9976L63.776 61.996L68.4813 28.058C68.7184 26.3486 67.5919 24.9592 65.8802 24.9592H59.1181Z" fill="#0157CF"/>
<path fill-rule="evenodd" clip-rule="evenodd" d="M154.409 24.9592C151.752 24.9592 151.19 26.2768 150.958 27.9845L150.539 31.0066C150.302 32.7192 151.437 34.0368 153.149 34.0368L164.905 34.0351L160.182 68.1054C159.953 69.7494 161.153 71.0784 162.801 71.0784H169.65C171.362 71.0784 172.138 69.8098 172.303 68.1054L177.027 34.0351H189.03C191.201 34.0351 192.153 33.1617 192.398 31.4507L192.9 27.9845C193.145 26.2719 191.999 24.9592 190.287 24.9592H154.409Z" fill="#0157CF"/>
<path fill-rule="evenodd" clip-rule="evenodd" d="M138.531 17.8968L134.524 22.4295C134.029 22.9832 134.039 23.8908 134.544 24.4372L136.3 26.3323C136.8 26.8787 137.621 26.8696 138.119 26.3196L142.306 21.6708L142.31 21.6653L142.367 21.6036C143.356 20.5017 143.356 18.721 142.367 17.6209C141.376 16.5209 139.771 16.5209 138.78 17.6209C138.732 17.6736 138.685 17.7298 138.639 17.7879C138.605 17.8206 138.566 17.8587 138.531 17.8968Z" fill="#FFB000"/>
</svg>
