<svg width="81" height="41" viewBox="0 0 81 41" fill="none" xmlns="http://www.w3.org/2000/svg">
<path d="M57.2408 13.4948V25.3906C57.2418 25.4341 57.234 25.4774 57.2178 25.5179C57.2017 25.5583 57.1775 25.595 57.1469 25.6258C57.1161 25.6566 57.0796 25.6808 57.0392 25.697C56.9989 25.7133 56.9558 25.7211 56.9123 25.72H54.494C54.4507 25.7211 54.4076 25.7133 54.3672 25.697C54.3269 25.6808 54.2903 25.6566 54.2596 25.6258C54.229 25.595 54.2048 25.5583 54.1886 25.5179C54.1725 25.4774 54.1647 25.4341 54.1657 25.3906V13.4948C54.1647 13.4512 54.1725 13.4079 54.1886 13.3674C54.2048 13.327 54.229 13.2904 54.2596 13.2595C54.2903 13.2287 54.3269 13.2045 54.3672 13.1884C54.4076 13.1721 54.4507 13.1642 54.494 13.1653H56.9123C56.9558 13.1642 56.9989 13.1721 57.0392 13.1884C57.0796 13.2045 57.1161 13.2287 57.1469 13.2595C57.1775 13.2904 57.2017 13.327 57.2178 13.3674C57.234 13.4079 57.2418 13.4512 57.2408 13.4948ZM76.1174 13.1653C76.2115 13.1653 76.329 13.2121 76.4458 13.3065C76.5166 13.3768 76.5166 13.4948 76.4933 13.5892L72.5016 25.5085C72.4774 25.5701 72.4354 25.6233 72.3812 25.661C72.3269 25.6988 72.2627 25.7196 72.1965 25.7207H70.0366C69.8958 25.7207 69.7782 25.6498 69.7315 25.5085L67.4059 18.5597L65.0817 25.5078C65.0574 25.5694 65.0156 25.6224 64.9612 25.6603C64.907 25.6981 64.8427 25.7189 64.7767 25.72H62.6167C62.4759 25.72 62.3584 25.6498 62.3117 25.5078L58.32 13.5885C58.2967 13.4948 58.2967 13.4002 58.3667 13.3065C58.4142 13.2121 58.5317 13.1653 58.625 13.1653H61.3251C61.4659 13.1653 61.5834 13.259 61.6308 13.4002L63.7668 20.4435L66.1151 13.4002C66.1392 13.3386 66.1811 13.2855 66.2354 13.2477C66.2898 13.2099 66.3539 13.1891 66.42 13.188H68.3217C68.4626 13.188 68.5801 13.259 68.6268 13.4002L70.9751 20.4435L73.1117 13.4002C73.1308 13.3335 73.1708 13.2747 73.2256 13.2325C73.2806 13.1902 73.3475 13.1666 73.4166 13.1653H76.1174ZM80.2024 13.1653C80.3667 13.1653 80.5075 13.3065 80.5308 13.4948V25.3906C80.5318 25.4341 80.524 25.4774 80.5079 25.5179C80.4917 25.5583 80.4675 25.595 80.4369 25.6258C80.4062 25.6566 80.3696 25.6808 80.3293 25.697C80.2889 25.7133 80.2458 25.7211 80.2024 25.72H77.7842C77.7407 25.7211 77.6976 25.7133 77.6573 25.697C77.6171 25.6808 77.5804 25.6566 77.5498 25.6258C77.519 25.595 77.4948 25.5583 77.4787 25.5179C77.4625 25.4774 77.4548 25.4341 77.4558 25.3906V13.4948C77.4548 13.4512 77.4625 13.4079 77.4787 13.3674C77.4948 13.327 77.519 13.2904 77.5498 13.2595C77.5804 13.2287 77.6171 13.2045 77.6573 13.1884C77.6976 13.1721 77.7407 13.1642 77.7842 13.1653H80.2024ZM52.7565 25.2969C52.8975 25.4616 52.78 25.6966 52.5684 25.6966H49.61C49.5518 25.6982 49.4939 25.6862 49.441 25.6618C49.3881 25.6373 49.3416 25.6009 49.3049 25.5553L48.8123 24.9433C47.7791 25.6022 46.5575 26.0034 45.2667 26.0034C41.6516 26.0034 38.7166 23.0587 38.7166 19.431C38.7166 15.8032 41.6516 12.8585 45.2667 12.8585C48.8825 12.8585 51.8174 15.8032 51.8174 19.431C51.8174 20.7268 51.4416 21.9517 50.7841 22.9877L52.7565 25.2969ZM28.0333 27.4069C28.6441 27.6427 28.8791 28.5608 28.9258 28.9613C29.0199 29.6919 28.8091 29.9745 28.574 29.9745C28.3391 29.9745 28.01 29.6919 27.6582 29.1267C27.3058 28.5608 27.165 27.9253 27.3532 27.595C27.47 27.3828 27.7275 27.289 28.0333 27.4069ZM24.465 30.069C24.8408 30.069 25.2633 30.2337 25.6391 30.5632C26.3666 31.176 26.5782 31.8825 26.2025 32.4008C25.9908 32.66 25.6391 32.8248 25.24 32.8248C24.8408 32.8248 24.4182 32.6835 24.1366 32.4242C23.4791 31.859 23.2916 30.916 23.7133 30.3985C23.8783 30.1861 24.1366 30.069 24.465 30.069ZM16.2482 36.8765C7.3258 36.8765 0.0949097 29.6209 0.0949097 20.6698C0.0949097 11.7186 7.32653 4.46375 16.2475 4.46375C25.1692 4.46375 32.4007 11.7193 32.4007 20.6698C32.4007 23.7081 31.5557 26.5591 30.124 28.9854C30.0765 29.0557 29.9591 29.0323 29.9357 28.9378C29.3723 24.9572 26.954 22.7658 23.4324 22.1069C23.1266 22.0593 23.0799 21.8712 23.4791 21.8243C24.5591 21.7299 26.085 21.7533 26.8833 21.8946C26.93 21.4941 26.954 21.0702 26.954 20.6463C26.954 14.7336 22.1641 9.92773 16.2708 9.92773C10.3783 9.92773 5.58831 14.7336 5.58831 20.6463C5.58831 26.5591 10.3783 31.3649 16.2715 31.3649H16.7641C16.5968 30.4085 16.5259 29.4376 16.5525 28.467C16.5766 27.8074 16.7174 27.713 16.9991 28.2313C18.4782 30.7989 20.5916 33.1074 24.7233 34.0262C28.1041 34.7803 31.4849 35.6515 35.1241 40.2919C35.4524 40.6924 34.96 41.1162 34.5841 40.7868C30.8749 37.4886 27.4941 36.405 24.4182 36.405C20.9667 36.4291 18.6198 36.8765 16.2482 36.8765ZM46.8866 22.6583L45.595 21.0798C45.4549 20.915 45.5723 20.6558 45.7833 20.6558H48.5066C48.6475 20.2788 48.7182 19.8548 48.7182 19.431C48.7182 17.4761 47.2625 15.7798 45.2667 15.7798C43.2716 15.7798 41.8151 17.4761 41.8151 19.431C41.8151 21.3858 43.2716 23.0587 45.2667 23.0587C45.83 23.0821 46.394 22.9174 46.8866 22.6583Z" fill="#FF8C00"/>
</svg>
