<svg xmlns="http://www.w3.org/2000/svg" width="176" height="38" viewBox="0 0 176 38" fill="none">
<path d="M38.2481 32.245C38.6521 31.283 40.6121 23.635 42.6051 15.25C44.7381 6.27602 46.7141 0.00202364 47.4081 2.36406e-05C49.5041 -0.00897636 51.2371 2.54902 55.7751 12.347C58.2251 17.636 60.5011 21.97 60.8331 21.979C61.1651 21.988 63.3601 17.737 65.7121 12.534C68.0631 7.33003 70.7961 2.33902 71.7861 1.44302C74.1701 -0.713976 77.2391 0.345023 78.5551 3.77802C79.4691 6.16202 85.7291 32.066 85.7291 33.462C85.7291 33.755 83.9691 33.995 81.8191 33.995H77.9081L75.4661 23.745L73.0231 13.495L71.3051 17.495C64.6781 32.92 63.9891 33.995 60.7171 33.995C57.7841 33.995 57.3771 33.507 53.8291 25.745C51.7551 21.207 49.7071 16.595 49.2771 15.495C48.5411 13.609 48.4501 13.638 47.6931 15.995C47.2511 17.37 46.1481 21.982 45.2411 26.245C43.6231 33.85 43.5361 33.995 40.5541 33.995C38.0471 33.995 37.6431 33.689 38.2481 32.245Z" fill="#0061CE"/>
<path d="M47.481 1.74997C47.077 2.71197 45.117 10.36 43.124 18.745C40.991 27.719 39.015 33.993 38.321 33.995C36.225 34.004 34.492 31.446 29.954 21.648C27.504 16.359 25.228 12.025 24.896 12.016C24.564 12.007 22.369 16.258 20.017 21.461C17.666 26.665 14.933 31.656 13.943 32.552C11.559 34.709 8.48998 33.65 7.17398 30.217C6.25998 27.833 0 1.92897 0 0.532974C0 0.239975 1.75997 -2.67029e-05 3.90997 -2.67029e-05H7.82098L10.263 10.25L12.706 20.5L14.424 16.5C21.051 1.07497 21.74 -2.67029e-05 25.012 -2.67029e-05C27.945 -2.67029e-05 28.352 0.487972 31.9 8.24997C33.974 12.788 36.022 17.4 36.452 18.5C37.188 20.386 37.279 20.357 38.036 18C38.478 16.625 39.581 12.013 40.488 7.74997C42.106 0.14497 42.193 -2.67029e-05 45.175 -2.67029e-05C47.682 -2.67029e-05 48.086 0.305973 47.481 1.74997Z" fill="#FFB700"/>
<path d="M111.889 13.371C111.959 13.539 111.994 13.693 111.994 13.833C111.994 14.071 111.903 14.274 111.721 14.442C111.553 14.596 111.343 14.673 111.091 14.673C110.699 14.673 110.433 14.505 110.293 14.169C109.789 13.077 108.816 12.51 107.374 12.468C106.408 12.454 105.645 12.748 105.085 13.35C104.525 13.938 104.245 14.736 104.245 15.744V22.317C104.245 23.269 104.546 24.067 105.148 24.711C105.778 25.397 106.562 25.712 107.5 25.656C108.83 25.6 109.775 24.844 110.335 23.388C110.503 22.996 110.776 22.8 111.154 22.8C111.686 22.8 111.952 23.073 111.952 23.619C111.952 23.787 111.924 23.934 111.868 24.06C111.546 25.026 110.979 25.81 110.167 26.412C109.369 27 108.466 27.301 107.458 27.315C106.044 27.329 104.868 26.888 103.93 25.992C102.978 25.068 102.502 23.906 102.502 22.506V15.492C102.502 13.994 103.013 12.804 104.035 11.922C104.959 11.124 106.086 10.725 107.416 10.725C108.396 10.725 109.271 10.942 110.041 11.376C110.895 11.852 111.511 12.517 111.889 13.371ZM122.525 25.278C123.085 25.278 123.365 25.565 123.365 26.139C123.365 26.713 123.085 27 122.525 27H114.65C114.076 27 113.789 26.713 113.789 26.139V11.901C113.789 11.327 114.076 11.04 114.65 11.04H122.525C123.085 11.04 123.365 11.327 123.365 11.901C123.365 12.475 123.085 12.762 122.525 12.762H115.511V18.159H120.929C121.489 18.159 121.769 18.446 121.769 19.02C121.769 19.594 121.489 19.881 120.929 19.881H115.511V25.278H122.525ZM134.726 11.901V26.139C134.726 26.615 134.495 26.895 134.033 26.979C133.557 27.077 133.214 26.93 133.004 26.538L126.872 15.219V26.139C126.872 26.713 126.585 27 126.011 27C125.437 27 125.15 26.713 125.15 26.139V11.901C125.15 11.649 125.234 11.439 125.402 11.271C125.584 11.103 125.801 11.019 126.053 11.019C126.389 11.019 126.641 11.173 126.809 11.481L133.004 22.926V11.901C133.004 11.327 133.291 11.04 133.865 11.04C134.439 11.04 134.726 11.327 134.726 11.901ZM144.82 11.04C145.38 11.04 145.66 11.327 145.66 11.901C145.66 12.475 145.38 12.762 144.82 12.762H141.733V26.139C141.733 26.713 141.446 27 140.872 27C140.298 27 140.011 26.713 140.011 26.139V12.762H136.945C136.371 12.762 136.084 12.475 136.084 11.901C136.084 11.327 136.371 11.04 136.945 11.04H144.82ZM156.566 15.471C156.566 16.479 156.195 17.417 155.453 18.285C154.641 19.223 153.598 19.755 152.324 19.881L155.789 25.698C155.873 25.838 155.915 25.985 155.915 26.139C155.915 26.377 155.824 26.58 155.642 26.748C155.46 26.916 155.25 27 155.012 27C154.704 27 154.466 26.86 154.298 26.58L150.35 19.902H148.754V26.139C148.754 26.713 148.467 27 147.893 27C147.319 27 147.032 26.713 147.032 26.139V11.901C147.032 11.327 147.319 11.04 147.893 11.04H151.799C153.381 11.04 154.599 11.502 155.453 12.426C156.195 13.238 156.566 14.253 156.566 15.471ZM154.823 15.45C154.823 14.68 154.585 14.057 154.109 13.581C153.563 13.021 152.73 12.741 151.61 12.741H148.754V18.159H151.61C152.548 18.159 153.325 17.872 153.941 17.298C154.501 16.78 154.795 16.164 154.823 15.45ZM166.658 25.278C167.218 25.278 167.498 25.565 167.498 26.139C167.498 26.713 167.218 27 166.658 27H158.783C158.209 27 157.922 26.713 157.922 26.139V11.901C157.922 11.327 158.209 11.04 158.783 11.04H166.658C167.218 11.04 167.498 11.327 167.498 11.901C167.498 12.475 167.218 12.762 166.658 12.762H159.644V18.159H165.062C165.622 18.159 165.902 18.446 165.902 19.02C165.902 19.594 165.622 19.881 165.062 19.881H159.644V25.278H166.658Z" fill="#B0B0B0"/>
</svg>