<svg width="99" height="56" viewBox="0 0 99 56" fill="none" xmlns="http://www.w3.org/2000/svg">
<g clip-path="url(#clip0_137_849)">
<path d="M87.2158 24.1215L85.3568 28.6899C85.3035 28.743 85.3035 28.8493 85.3035 28.9024L85.2505 29.0086L85.1972 28.9024C85.1972 28.8493 85.1441 28.743 85.1441 28.6899L83.2849 24.1215H80.8946L84.0285 31.9303L82.7006 34.9051H85.0911L89.5 24.1215H87.2158Z" fill="#7F2BFD"/>
<path d="M69.5796 24.5465C69.1546 24.2278 68.6234 24.0154 67.986 23.9622C66.9234 23.856 65.9141 24.2278 65.2235 24.9184V24.0685H63.0455V31.8772H65.2235V27.7869C65.2235 26.8839 65.3831 26.6183 65.5424 26.4058C65.8081 25.9808 66.2861 25.7683 66.8704 25.7683C67.4547 25.7683 67.986 26.0339 68.2514 26.4589C68.411 26.7776 68.464 27.2026 68.464 27.4151C68.464 28.1056 68.464 31.8772 68.464 31.8772H70.642V27.1495C70.642 25.9277 70.3233 25.0777 69.5796 24.5465Z" fill="#7F2BFD"/>
<path d="M58.9556 24.1747C57.893 23.8029 56.7243 23.856 55.662 24.3341C54.9714 24.6528 54.334 25.184 53.9621 25.8746C53.5904 26.4589 53.4308 27.2026 53.4308 27.9994C53.4308 28.7962 53.5904 29.5399 53.9621 30.1242C54.334 30.7086 54.8121 31.2398 55.4494 31.5585C56.087 31.8772 56.8307 32.0897 57.5213 32.0897C57.893 32.0897 58.2649 32.0366 58.6366 31.9304C58.9556 31.8241 59.2742 31.7179 59.5929 31.5585C60.2303 31.1867 60.7616 30.7086 61.0802 30.1242C61.4522 29.5399 61.6115 28.7962 61.6115 27.9994C61.6115 26.2464 60.6022 24.759 58.9556 24.1747ZM59.5399 28.1057C59.4866 28.7962 59.2742 29.3806 58.8493 29.7524C58.5306 30.018 58.0523 30.1774 57.468 30.2305C56.8837 30.2305 56.4587 30.0711 56.087 29.7524C55.662 29.3806 55.4494 28.7962 55.3964 28.1057C55.3434 27.3088 55.662 26.6714 56.2463 26.2464C56.565 26.0339 56.99 25.8746 57.415 25.8746C57.893 25.8746 58.2649 26.0339 58.6366 26.2464C59.2742 26.6183 59.5929 27.3088 59.5399 28.1057Z" fill="#7F2BFD"/>
<path d="M50.8812 24.5465C50.4562 24.2278 49.9249 24.0153 49.2875 23.9622C49.1812 23.9622 49.0219 23.9622 48.9156 23.9622C48.0656 23.9622 47.322 24.334 46.6846 25.0777L46.5783 25.2371H46.3657C46.2063 24.9715 45.994 24.759 45.7814 24.5996C45.3564 24.2809 44.8253 24.0684 44.1877 24.0153C43.1784 23.9091 42.3818 24.2278 41.6911 24.9715V24.1747H39.5132V31.9834H41.6911V27.7869C41.6911 26.937 41.7974 26.7245 41.9568 26.4589C42.2224 26.0339 42.7004 25.7683 43.2317 25.8214C43.7628 25.8214 44.241 26.087 44.5067 26.512C44.719 26.8307 44.719 27.2026 44.719 27.5744V31.9303H46.897V27.7338C46.897 26.937 47.0033 26.6713 47.1626 26.4057C47.4283 25.9808 47.9063 25.7683 48.4376 25.7683C48.9686 25.7683 49.3936 26.0339 49.6592 26.4589C49.8186 26.7245 49.8719 27.0432 49.8719 27.2557C49.8719 27.3619 49.8719 27.4682 49.8719 27.5213V31.8772H52.0498V27.0963C52.0498 26.6713 51.9965 26.2464 51.8905 25.8745C51.6778 25.3433 51.3592 24.8653 50.8812 24.5465Z" fill="#7F2BFD"/>
<path d="M78.8224 29.5399C78.5037 29.8586 77.7601 30.4429 76.7508 30.496C75.9008 30.5491 75.2635 30.2835 74.7852 29.8055C74.5728 29.593 74.4135 29.2742 74.3072 28.9555H80.31V28.9024C80.363 28.5837 80.416 28.3181 80.416 27.9993C80.416 27.7338 80.363 27.3619 80.2567 26.8838C79.9911 25.9808 79.46 25.2902 78.7694 24.759C77.9725 24.1747 77.2288 24.0153 77.0164 24.0153C75.4758 23.7497 73.7229 24.4402 72.8199 25.8745C72.1823 26.8838 72.2356 27.8931 72.2356 28.2118C72.2356 28.5837 72.2886 29.7523 73.2449 30.8148C74.3605 32.0365 75.9008 32.0897 76.3788 32.1428C78.5037 32.1959 79.938 30.8679 80.2567 30.6023L78.8224 29.5399ZM75.1041 26.2464C75.4228 26.0339 75.7945 25.8745 76.2728 25.8745C76.7508 25.8745 77.1227 26.0339 77.4944 26.2464C77.8131 26.512 78.0788 26.8307 78.2381 27.2025H74.4135C74.5198 26.8307 74.7322 26.4589 75.1041 26.2464Z" fill="#7F2BFD"/>
<path d="M24.7459 19.5C20.0713 19.5 16.3528 23.2716 16.3528 27.8931C16.3528 32.5677 20.1244 36.2862 24.7459 36.2862C29.3674 36.2862 33.139 32.5146 33.139 27.8931C33.139 23.2716 29.3674 19.5 24.7459 19.5ZM24.7459 30.9741C23.046 30.9741 21.6118 29.5398 21.6118 27.84C21.6118 26.1401 23.046 24.7059 24.7459 24.7059C26.4458 24.7059 27.88 26.1401 27.88 27.84C27.8269 29.5929 26.4458 30.9741 24.7459 30.9741Z" fill="#7F2BFD"/>
<path d="M16.2995 21.8905V34.1083H13.3247L9.5 21.8905H16.2995Z" fill="#7F2BFD"/>
</g>
<defs>
<clipPath id="clip0_137_849">
<rect width="80" height="17" fill="white" transform="translate(9.5 19.5)"/>
</clipPath>
</defs>
</svg>
